<svg width="250" height="250" viewBox="0 0 250 250" fill="none" xmlns="http://www.w3.org/2000/svg">
<path d="M125 187.5L77.4221 120.312C69.6344 111.118 64.6193 99.8996 62.9608 87.9648C61.3023 76.0299 63.0686 63.8694 68.0542 52.8996C73.0397 41.9299 81.0392 32.6022 91.121 26.0031C101.203 19.4039 112.952 15.8048 125 15.625C141.701 15.79 157.656 22.5671 169.371 34.472C181.085 46.3768 187.604 62.439 187.5 79.1406C187.507 93.7104 182.546 107.847 173.438 119.219L125 187.5ZM125 31.25C112.437 31.3943 100.444 36.5186 91.655 45.4977C82.8663 54.4768 78.0002 66.5768 78.1252 79.1406C78.1843 90.6068 82.3091 101.68 89.7658 110.391L125 160.312L161.172 109.375C168.048 100.793 171.82 90.1375 171.875 79.1406C172 66.5768 167.134 54.4768 158.345 45.4977C149.557 36.5186 137.564 31.3943 125 31.25Z" fill="black"/>
<path d="M125 85.9375C133.629 85.9375 140.625 78.9419 140.625 70.3125C140.625 61.6831 133.629 54.6875 125 54.6875C116.371 54.6875 109.375 61.6831 109.375 70.3125C109.375 78.9419 116.371 85.9375 125 85.9375Z" fill="black"/>
<path d="M218.75 93.75H203.125V109.375H218.75V218.75H31.25V109.375H46.875V93.75H31.25C27.106 93.75 23.1317 95.3962 20.2015 98.3265C17.2712 101.257 15.625 105.231 15.625 109.375V218.75C15.625 222.894 17.2712 226.868 20.2015 229.799C23.1317 232.729 27.106 234.375 31.25 234.375H218.75C222.894 234.375 226.868 232.729 229.799 229.799C232.729 226.868 234.375 222.894 234.375 218.75V109.375C234.375 105.231 232.729 101.257 229.799 98.3265C226.868 95.3962 222.894 93.75 218.75 93.75Z" fill="black"/>
</svg>
