<svg width="278" height="278" viewBox="0 0 278 278" fill="none" xmlns="http://www.w3.org/2000/svg">
<path d="M166.781 19.3142C167.157 17.9063 167.808 16.5864 168.695 15.4299C169.581 14.2734 170.687 13.3029 171.949 12.5741C173.212 11.8452 174.605 11.3721 176.05 11.1818C177.495 10.9916 178.963 11.088 180.371 11.4654C200.937 16.8313 219.7 27.5824 234.73 42.6116C249.759 57.6407 260.51 76.4045 265.876 96.9704C266.253 98.3781 266.349 99.8464 266.159 101.291C265.969 102.736 265.496 104.13 264.767 105.392C264.038 106.654 263.068 107.76 261.911 108.647C260.755 109.533 259.435 110.184 258.027 110.56C257.09 110.807 256.125 110.933 255.156 110.935C252.714 110.935 250.339 110.13 248.401 108.643C246.462 107.156 245.069 105.071 244.437 102.711C240.063 85.9202 231.289 70.5994 219.021 58.3287C206.753 46.0581 191.434 37.2815 174.644 32.904C173.234 32.5289 171.913 31.8797 170.755 30.9935C169.597 30.1073 168.625 29.0014 167.895 27.7392C167.164 26.477 166.69 25.0832 166.499 23.6376C166.308 22.1919 166.404 20.7228 166.781 19.3142ZM163.55 77.279C182.673 82.3822 194.959 94.6824 200.062 113.805C200.694 116.165 202.087 118.25 204.026 119.737C205.964 121.224 208.339 122.029 210.781 122.028C211.75 122.026 212.715 121.901 213.652 121.654C215.06 121.277 216.38 120.627 217.536 119.74C218.693 118.853 219.663 117.747 220.392 116.485C221.121 115.223 221.594 113.83 221.784 112.385C221.974 110.94 221.878 109.472 221.501 108.064C214.401 81.4947 195.846 62.9404 169.277 55.8404C166.434 55.0809 163.406 55.4819 160.858 56.9551C158.311 58.4284 156.453 60.8532 155.694 63.6961C154.935 66.5391 155.336 69.5673 156.809 72.1146C158.282 74.6618 160.707 76.5196 163.55 77.279ZM263.99 186.455L198.661 157.182L198.481 157.099C195.09 155.648 191.39 155.066 187.717 155.405C184.044 155.744 180.513 156.993 177.445 159.04C177.083 159.278 176.736 159.538 176.405 159.817L142.652 188.591C121.269 178.204 99.1921 156.294 88.8056 135.188L117.622 100.923C117.899 100.576 118.162 100.229 118.412 99.8548C120.415 96.7943 121.63 93.2862 121.949 89.6426C122.269 85.9991 121.682 82.333 120.243 78.9708V78.8044L90.8857 13.3652C88.9823 8.97294 85.7094 5.31408 81.5556 2.9348C77.4019 0.555516 72.59 -0.41659 67.8384 0.1636C49.048 2.63621 31.8001 11.8643 19.3162 26.1243C6.83231 40.3843 -0.0338489 58.701 0.000125479 77.6535C0.000125479 187.759 89.5822 277.341 199.688 277.341C218.64 277.375 236.957 270.509 251.217 258.025C265.477 245.541 274.705 228.293 277.177 209.503C277.759 204.753 276.789 199.942 274.412 195.788C272.035 191.635 268.379 188.361 263.99 186.455Z" fill="black"/>
</svg>
