<svg width="250" height="250" viewBox="0 0 250 250" fill="none" xmlns="http://www.w3.org/2000/svg">
<path d="M229.167 19.2308H197.917V9.61539C197.917 7.06523 196.819 4.61951 194.866 2.81628C192.912 1.01305 190.263 0 187.5 0C184.737 0 182.088 1.01305 180.134 2.81628C178.181 4.61951 177.083 7.06523 177.083 9.61539V19.2308H72.9167V9.61539C72.9167 7.06523 71.8192 4.61951 69.8657 2.81628C67.9122 1.01305 65.2627 0 62.5 0C59.7373 0 57.0878 1.01305 55.1343 2.81628C53.1808 4.61951 52.0833 7.06523 52.0833 9.61539V19.2308H20.8333C15.308 19.2308 10.0089 21.2569 6.10194 24.8633C2.19493 28.4698 0 33.3612 0 38.4615V230.769C0 235.87 2.19493 240.761 6.10194 244.367C10.0089 247.974 15.308 250 20.8333 250H229.167C234.692 250 239.991 247.974 243.898 244.367C247.805 240.761 250 235.87 250 230.769V38.4615C250 33.3612 247.805 28.4698 243.898 24.8633C239.991 21.2569 234.692 19.2308 229.167 19.2308ZM52.0833 38.4615V48.0769C52.0833 50.6271 53.1808 53.0728 55.1343 54.876C57.0878 56.6793 59.7373 57.6923 62.5 57.6923C65.2627 57.6923 67.9122 56.6793 69.8657 54.876C71.8192 53.0728 72.9167 50.6271 72.9167 48.0769V38.4615H177.083V48.0769C177.083 50.6271 178.181 53.0728 180.134 54.876C182.088 56.6793 184.737 57.6923 187.5 57.6923C190.263 57.6923 192.912 56.6793 194.866 54.876C196.819 53.0728 197.917 50.6271 197.917 48.0769V38.4615H229.167V76.9231H20.8333V38.4615H52.0833ZM229.167 230.769H20.8333V96.1539H229.167V230.769ZM104.167 125V201.923C104.167 204.473 103.069 206.919 101.116 208.722C99.1622 210.525 96.5127 211.538 93.75 211.538C90.9873 211.538 88.3378 210.525 86.3843 208.722C84.4308 206.919 83.3333 204.473 83.3333 201.923V140.553L77.5781 143.221C75.1055 144.362 72.2431 144.55 69.6205 143.743C66.9979 142.936 64.83 141.201 63.5937 138.918C62.3575 136.636 62.154 133.994 63.0282 131.573C63.9024 129.152 65.7826 127.151 68.2552 126.01L89.0885 116.394C90.6772 115.66 92.4429 115.314 94.2176 115.387C95.9923 115.461 97.7171 115.952 99.2281 116.815C100.739 117.677 101.986 118.882 102.85 120.315C103.715 121.747 104.168 123.36 104.167 125ZM181.198 161.599L156.25 192.308H177.083C179.846 192.308 182.496 193.321 184.449 195.124C186.403 196.927 187.5 199.373 187.5 201.923C187.5 204.473 186.403 206.919 184.449 208.722C182.496 210.525 179.846 211.538 177.083 211.538H135.417C133.482 211.538 131.586 211.041 129.94 210.102C128.295 209.164 126.965 207.82 126.1 206.223C125.235 204.626 124.868 202.838 125.042 201.06C125.216 199.281 125.923 197.582 127.083 196.154L164.557 150.036C165.41 148.989 166.021 147.791 166.354 146.518C166.687 145.244 166.735 143.922 166.494 142.631C166.254 141.339 165.73 140.107 164.955 139.01C164.18 137.913 163.17 136.973 161.987 136.249C160.805 135.524 159.474 135.031 158.077 134.798C156.681 134.566 155.247 134.599 153.865 134.897C152.483 135.194 151.181 135.749 150.039 136.527C148.898 137.305 147.941 138.291 147.227 139.423C146.563 140.551 145.661 141.546 144.574 142.347C143.487 143.149 142.238 143.741 140.899 144.089C139.56 144.438 138.159 144.535 136.779 144.376C135.398 144.216 134.067 143.803 132.862 143.161C131.658 142.519 130.605 141.66 129.766 140.636C128.926 139.612 128.318 138.444 127.976 137.199C127.634 135.954 127.565 134.659 127.774 133.39C127.983 132.12 128.465 130.902 129.193 129.808C132.634 124.311 137.943 120.016 144.297 117.588C150.651 115.16 157.696 114.734 164.339 116.377C170.982 118.021 176.852 121.641 181.039 126.676C185.227 131.712 187.498 137.883 187.5 144.231C187.522 150.502 185.307 156.605 181.198 161.599Z" fill="black"/>
</svg>
